# This file uses centimeters as units for non-parametric coordinates.

mtllib 16by9.mtl
g default
v -8.000000 -0.000000 4.500000
v 8.000000 -0.000000 4.500000
v -8.000000 -0.000000 -4.500000
v 8.000000 0.000000 -4.500000
vt 0.000000 0.000000
vt 1.000000 0.000000
vt 0.000000 0.562500
vt 1.000000 0.562500
vn -0.000000 1.000000 -0.000000
vn 0.000000 1.000000 0.000000
vn -0.000000 1.000000 -0.000000
vn 0.000000 1.000000 0.000000
s 1
g pPlane1
usemtl initialShadingGroup
f 1/1/1 4/4/2 3/3/3
f 1/1/1 2/2/4 4/4/2
